<svg width="540" height="162" viewBox="0 0 540 162" fill="none" xmlns="http://www.w3.org/2000/svg">
<g clip-path="url(#clip0_1945_2328)">
<path d="M540 47.4435V36.8928H503.41V47.4435H515.33V107.025C515.33 112.022 511.279 116.091 506.264 116.091H503.39V126.623H539.98V116.091H528.06V47.4435H540Z" fill="#231F20"/>
<path d="M307.514 126.622V116.611H309.404C314.612 116.611 318.836 112.387 318.836 107.179V46.8259H308.806V36.8152H330.949V116.63H342.272V126.641H307.533L307.514 126.622Z" fill="#231F20"/>
<path d="M494.303 126.623H479.894L471.523 102.878H431.885L423.398 126.623H409.492L443.343 36.7964H461.107L494.303 126.623ZM444.886 66.6934L436.129 91.0739H467.28L458.658 66.6934C455.186 56.5477 453.257 51.1662 451.83 47.4436C450.422 51.1662 448.358 57.2035 444.886 66.6934Z" fill="#231F20"/>
<path d="M178.553 126.641H165.688V36.8152H202.24C221.277 36.8152 232.233 47.9832 232.233 64.1469C232.233 80.3106 221.161 91.6136 202.124 91.6136H178.573V126.641H178.553ZM178.553 48.6197V80.4456H199.79C212.405 80.4456 218.712 73.5211 218.712 64.1469C218.712 54.7727 212.655 48.6197 199.79 48.6197H178.553Z" fill="#231F20"/>
<path d="M267.821 63.51C250.558 63.51 236.573 78.0342 236.573 95.9724C236.573 113.911 250.558 128.435 267.821 128.435C285.084 128.435 299.068 113.911 299.068 95.9724C299.068 78.0535 285.084 63.51 267.821 63.51ZM267.821 115.878C257.231 115.878 248.648 106.967 248.648 95.9724C248.648 84.978 257.231 76.0668 267.821 76.0668C278.411 76.0668 286.993 84.978 286.993 95.9724C286.993 106.967 278.41 115.878 267.821 115.878Z" fill="#231F20"/>
<path d="M396.242 62.99L385.305 95.9732C382.354 104.576 381.582 107.006 380.406 110.478C379.249 107.392 378.091 104.576 373.848 94.7002L360.712 63.0093H347.191L375.372 125.89L372.15 134.994C370.357 139.874 367.772 140.896 363.393 140.896H355.196L350.528 151.312V151.659H363.779C374.966 151.659 379.731 147.686 383.858 135.631L408.953 63.0093H396.203L396.242 62.99Z" fill="#231F20"/>
<path d="M62.2728 141.08C56.7178 141.08 52.2236 145.613 52.2236 151.226C52.2236 156.839 56.7178 161.371 62.2728 161.371C67.8278 161.371 72.3221 156.838 72.3221 151.226C72.3221 145.614 67.8279 141.08 62.2728 141.08Z" fill="#231F20"/>
<path d="M62.2728 0C56.7178 0 52.2236 4.5328 52.2236 10.1457C52.2236 15.7586 56.7178 20.2914 62.2728 20.2914C67.8278 20.2914 72.3221 15.7587 72.3221 10.1457C72.3221 4.5327 67.8279 0 62.2728 0Z" fill="#231F20"/>
<path d="M114.497 29.8762C108.942 29.8762 104.448 34.409 104.448 40.0219C104.448 45.6348 108.942 50.1676 114.497 50.1676C120.052 50.1676 124.546 45.6348 124.546 40.0219C124.546 34.409 120.052 29.8762 114.497 29.8762Z" fill="#231F20"/>
<path d="M10.0493 29.8762C4.4942 29.8762 0 34.4282 0 40.0219C0 45.6156 4.4942 50.1676 10.0493 50.1676C15.6044 50.1676 20.0985 45.6348 20.0985 40.0219C20.0985 34.409 15.6043 29.8762 10.0493 29.8762Z" fill="#231F20"/>
<path d="M114.497 111.204C108.942 111.204 104.448 115.736 104.448 121.349C104.448 126.962 108.942 131.495 114.497 131.495C120.052 131.495 124.546 126.962 124.546 121.349C124.546 115.736 120.052 111.204 114.497 111.204Z" fill="#231F20"/>
<path d="M10.0493 111.204C4.4942 111.204 0 115.736 0 121.349C0 126.943 4.4942 131.495 10.0493 131.495C15.6044 131.495 20.0985 126.962 20.0985 121.349C20.0985 115.736 15.6043 111.204 10.0493 111.204Z" fill="#231F20"/>
<path d="M36.161 111.123C41.7161 111.123 46.2103 106.591 46.2103 100.977C46.2103 95.3638 41.7161 90.8315 36.161 90.8315C30.6059 90.8315 26.1118 95.3643 26.1118 100.977C26.1118 106.59 30.606 111.123 36.161 111.123Z" fill="#231F20"/>
<path d="M62.2728 90.7504C67.8279 90.7504 72.3221 86.2176 72.3221 80.6047C72.3221 74.9918 67.8279 70.459 62.2728 70.459C56.7177 70.459 52.2236 74.9917 52.2236 80.6047C52.2236 86.2177 56.7178 90.7504 62.2728 90.7504Z" fill="#231F20"/>
<path d="M62.2728 131.495C67.8279 131.495 72.3221 126.962 72.3221 121.349C72.3221 115.736 67.8279 111.204 62.2728 111.204C56.7177 111.204 52.2236 115.736 52.2236 121.349C52.2236 126.962 56.7178 131.495 62.2728 131.495Z" fill="#231F20"/>
<path d="M62.2728 50.1676C67.8279 50.1676 72.3221 45.6348 72.3221 40.0219C72.3221 34.409 67.8279 29.8762 62.2728 29.8762C56.7177 29.8762 52.2236 34.409 52.2236 40.0219C52.2236 45.6348 56.7178 50.1676 62.2728 50.1676Z" fill="#231F20"/>
<path d="M114.497 90.7504C120.052 90.7504 124.546 86.2176 124.546 80.6047C124.546 74.9918 120.052 70.459 114.497 70.459C108.942 70.459 104.448 74.9917 104.448 80.6047C104.448 86.2177 108.942 90.7504 114.497 90.7504Z" fill="#231F20"/>
<path d="M10.0493 90.7504C15.6043 90.7504 20.0985 86.2176 20.0985 80.6047C20.0985 74.9918 15.6043 70.459 10.0493 70.459C4.4943 70.459 0 74.9917 0 80.6047C0 86.2177 4.4942 90.7504 10.0493 90.7504Z" fill="#231F20"/>
<path d="M88.3852 111.123C93.9403 111.123 98.4345 106.591 98.4345 100.977C98.4345 95.3638 93.9403 90.8315 88.3852 90.8315C82.8301 90.8315 78.3359 95.3643 78.3359 100.977C78.3359 106.59 82.8301 111.123 88.3852 111.123Z" fill="#231F20"/>
<path d="M36.161 70.4589C41.7161 70.4589 46.2103 65.9262 46.2103 60.3132C46.2103 54.7002 41.7161 50.1675 36.161 50.1675C30.6059 50.1675 26.1118 54.7003 26.1118 60.3132C26.1118 65.9261 30.606 70.4589 36.161 70.4589Z" fill="#231F20"/>
<path d="M88.3852 70.4589C93.9403 70.4589 98.4345 65.9262 98.4345 60.3132C98.4345 54.7002 93.9403 50.1675 88.3852 50.1675C82.8301 50.1675 78.3359 54.7003 78.3359 60.3132C78.3359 65.9261 82.8301 70.4589 88.3852 70.4589Z" fill="#231F20"/>
</g>
<defs>
<clipPath id="clip0_1945_2328">
<rect width="540" height="161.371" fill="white"/>
</clipPath>
</defs>
</svg>
